<svg width="16" height="16" viewBox="0 0 16 16" fill="none" xmlns="http://www.w3.org/2000/svg">
<path d="M11.7941 8.54791L4.96543 13.2759C4.86537 13.3451 4.74826 13.3857 4.62681 13.3931C4.50535 13.4005 4.38418 13.3746 4.27642 13.3181C4.16867 13.2615 4.07843 13.1766 4.01551 13.0725C3.95258 12.9683 3.91935 12.8489 3.91943 12.7272V3.27258C3.91935 3.1509 3.95258 3.03151 4.01551 2.92737C4.07843 2.82322 4.16867 2.73828 4.27642 2.68176C4.38418 2.62524 4.50535 2.59928 4.62681 2.60671C4.74826 2.61414 4.86537 2.65467 4.96543 2.72391L11.7941 7.45191C11.8827 7.51327 11.955 7.59517 12.005 7.69061C12.055 7.78604 12.0811 7.89218 12.0811 7.99991C12.0811 8.10765 12.055 8.21378 12.005 8.30922C11.955 8.40465 11.8827 8.48656 11.7941 8.54791Z" fill="white"/>
</svg>
