<svg width="274" height="274" viewBox="0 0 274 274" fill="none" xmlns="http://www.w3.org/2000/svg">
<path opacity="0.1" d="M126.172 259.277L20.1066 198.037C18.5722 197.133 18.764 195.571 20.545 194.558L88.6066 155.266C90.3876 154.225 93.1002 154.115 94.6346 155.019L200.7 216.258C202.234 217.135 202.043 218.697 200.262 219.738L132.2 259.03C130.419 260.071 127.706 260.181 126.172 259.277Z" fill="#020230"/>
<path d="M228.875 99.2388L123.248 38.2464C122.591 37.8628 121.824 37.7258 121.084 37.945L119.138 38.63L119.823 38.7944C119.522 39.1506 119.303 39.5616 119.166 40L95.273 117.569C94.6702 119.487 95.5469 121.816 97.2183 122.775L202.845 183.768C203.092 183.905 203.339 184.014 203.613 184.097L203.339 184.672L205.202 184.014C206.051 183.658 206.681 182.918 206.901 182.042L230.793 104.472C231.396 102.527 230.547 100.198 228.875 99.2388Z" fill="url(#paint0_linear_647_42866)"/>
<path d="M199.054 186.668L199.081 186.723L94.7417 126.47C93.2073 125.594 90.5221 125.703 88.7411 126.717L21.3371 165.625L19.0903 164.776L19.7205 167.927C19.8575 168.475 20.2137 168.94 20.7343 169.187L126.033 229.988C127.567 230.864 130.252 230.755 132.033 229.741L199.629 190.723C200.451 190.23 200.944 189.655 201.054 189.052L201.684 185.983L199.054 186.668Z" fill="url(#paint1_linear_647_42866)"/>
<path d="M126.172 227.216L20.1066 165.977C18.5722 165.073 18.764 163.511 20.545 162.497L88.6066 123.205C90.3876 122.164 93.1002 122.055 94.6346 122.959L200.7 184.198C202.234 185.075 202.043 186.636 200.262 187.678L132.2 226.969C130.419 227.983 127.706 228.093 126.172 227.216Z" fill="url(#paint2_linear_647_42866)"/>
<path d="M200.273 186.829L132.211 226.12C130.43 227.162 127.718 227.271 126.183 226.367L20.1181 165.155C19.6797 164.936 19.3235 164.525 19.1591 164.059C18.9399 164.772 19.2413 165.484 20.1181 165.977L126.183 227.216C127.718 228.121 130.43 227.984 132.211 226.97L200.273 187.651C201.451 186.966 201.917 186.062 201.67 185.267C201.506 185.842 201.068 186.39 200.273 186.829Z" fill="white"/>
<g opacity="0.4">
<path d="M70.6922 156.034L67.1028 153.979C66.8014 153.815 66.8562 153.513 67.185 153.321L71.4046 150.883C71.7608 150.691 72.1718 150.664 72.528 150.828L76.1174 152.883C76.3914 153.047 76.364 153.349 76.0352 153.541L71.8156 155.979C71.4594 156.198 71.0484 156.198 70.6922 156.034Z" fill="#06033E"/>
<path d="M76.2274 159.244L72.638 157.189C72.364 157.025 72.3914 156.724 72.7202 156.532L76.9398 154.093C77.296 153.901 77.707 153.874 78.0632 154.038L81.6526 156.093C81.9266 156.258 81.8992 156.559 81.5704 156.751L77.3508 159.19C76.9946 159.381 76.5836 159.409 76.2274 159.244Z" fill="#06033E"/>
<path d="M81.7538 162.416L78.1644 160.361C77.8904 160.197 77.9178 159.896 78.2466 159.704L82.4662 157.265C82.8224 157.073 83.2334 157.046 83.5896 157.21L87.179 159.265C87.453 159.43 87.4256 159.731 87.0968 159.923L82.8772 162.362C82.521 162.581 82.11 162.581 81.7538 162.416Z" fill="#06033E"/>
<path d="M89.4017 159.785L85.8123 157.73C85.5383 157.566 85.5657 157.264 85.8945 157.073L89.4565 155.018C89.8127 154.826 90.2237 154.798 90.5799 154.963L94.1693 157.018C94.4433 157.182 94.4159 157.484 94.0871 157.675L90.5251 159.73C90.1689 159.922 89.7579 159.95 89.4017 159.785Z" fill="#06033E"/>
<path d="M94.9481 162.994L91.3587 160.912C91.0847 160.747 91.1121 160.446 91.4409 160.254L95.0029 158.199C95.3591 158.007 95.7701 157.98 96.1263 158.144L99.7157 160.199C99.9897 160.364 99.9623 160.665 99.6335 160.857L96.0715 162.912C95.7153 163.131 95.3043 163.159 94.9481 162.994Z" fill="#06033E"/>
<path d="M100.455 166.168L96.8655 164.113C96.5915 163.949 96.6189 163.647 96.9477 163.455L100.51 161.4C100.866 161.209 101.277 161.181 101.633 161.346L105.223 163.401C105.497 163.565 105.469 163.866 105.14 164.058L101.578 166.113C101.25 166.332 100.839 166.332 100.455 166.168Z" fill="#06033E"/>
<path d="M105.982 169.379L102.392 167.324C102.118 167.16 102.146 166.858 102.475 166.666L106.009 164.611C106.365 164.42 106.776 164.392 107.133 164.557L110.722 166.612C110.996 166.776 110.969 167.077 110.64 167.269L107.078 169.324C106.776 169.516 106.338 169.543 105.982 169.379Z" fill="#06033E"/>
<path d="M111.509 172.561L107.919 170.506C107.645 170.341 107.673 170.04 108.001 169.848L111.563 167.793C111.92 167.601 112.331 167.574 112.687 167.738L116.276 169.793C116.55 169.958 116.523 170.259 116.194 170.451L112.632 172.506C112.276 172.725 111.865 172.725 111.509 172.561Z" fill="#06033E"/>
<path d="M117.055 175.762L113.465 173.707C113.191 173.543 113.219 173.241 113.547 173.049L117.109 170.994C117.466 170.803 117.877 170.775 118.233 170.94L121.822 172.995C122.096 173.159 122.069 173.46 121.74 173.652L118.205 175.707C117.822 175.899 117.411 175.926 117.055 175.762Z" fill="#06033E"/>
<path d="M122.581 178.944L118.992 176.889C118.718 176.724 118.745 176.423 119.074 176.231L122.636 174.176C122.992 173.984 123.403 173.957 123.76 174.121L127.349 176.176C127.623 176.341 127.596 176.642 127.267 176.834L123.705 178.889C123.349 179.108 122.938 179.108 122.581 178.944Z" fill="#06033E"/>
<path d="M128.128 182.145L124.538 180.09C124.264 179.926 124.292 179.624 124.621 179.432L128.183 177.377C128.539 177.186 128.95 177.158 129.306 177.323L132.895 179.378C133.169 179.542 133.142 179.843 132.813 180.035L129.251 182.09C128.895 182.282 128.484 182.309 128.128 182.145Z" fill="#06033E"/>
<path d="M133.635 185.327L130.045 183.272C129.771 183.107 129.799 182.806 130.127 182.614L133.689 180.559C134.046 180.367 134.457 180.34 134.813 180.504L138.402 182.559C138.676 182.724 138.649 183.025 138.32 183.217L134.758 185.272C134.429 185.491 133.991 185.491 133.635 185.327Z" fill="#06033E"/>
<path d="M139.161 188.528L135.572 186.473C135.298 186.308 135.325 186.007 135.654 185.815L139.216 183.76C139.572 183.568 139.983 183.541 140.339 183.705L143.929 185.76C144.203 185.925 144.175 186.226 143.846 186.418L140.284 188.473C139.928 188.665 139.517 188.692 139.161 188.528Z" fill="#06033E"/>
<path d="M97.5476 158.285L93.9856 156.202C93.7116 156.038 93.739 155.737 94.0678 155.545L97.6025 153.49C97.9587 153.298 98.3696 153.271 98.7258 153.435L102.315 155.49C102.589 155.654 102.562 155.956 102.233 156.148L98.6985 158.203C98.3423 158.422 97.9038 158.449 97.5476 158.285Z" fill="#06033E"/>
<path d="M91.9315 155.045L88.3421 152.962C88.0681 152.798 88.0955 152.497 88.4243 152.305L91.9863 150.25C92.3425 150.058 92.7535 150.031 93.1097 150.195L96.6991 152.25C96.9731 152.414 96.9457 152.716 96.6169 152.908L93.0549 154.963C92.7261 155.182 92.3151 155.209 91.9315 155.045Z" fill="#06033E"/>
<path d="M86.3115 151.787L78.6121 147.348C78.3381 147.184 78.3655 146.882 78.6943 146.69L82.2563 144.635C82.6125 144.444 83.0235 144.416 83.3797 144.581L91.0791 149.019C91.3531 149.184 91.3257 149.485 90.9969 149.677L87.4349 151.732C87.0787 151.951 86.6677 151.951 86.3115 151.787Z" fill="#06033E"/>
<path d="M90.2499 147.842L84.0027 144.225C83.7287 144.06 83.7561 143.759 84.0849 143.567L87.6469 141.512C88.0031 141.32 88.4141 141.293 88.7703 141.457L95.0175 145.074C95.2915 145.239 95.2641 145.54 94.9353 145.732L91.3733 147.787C91.0171 147.979 90.6061 148.006 90.2499 147.842Z" fill="#06033E"/>
<path d="M103.082 161.459L99.493 159.404C99.219 159.239 99.2464 158.938 99.5752 158.746L103.137 156.691C103.493 156.499 103.904 156.472 104.261 156.636L107.85 158.691C108.124 158.856 108.097 159.157 107.768 159.349L104.206 161.404C103.85 161.623 103.439 161.623 103.082 161.459Z" fill="#06033E"/>
<path d="M108.609 164.67L105.02 162.615C104.746 162.45 104.773 162.149 105.102 161.957L108.664 159.902C109.02 159.71 109.431 159.683 109.787 159.847L113.377 161.902C113.651 162.067 113.623 162.368 113.295 162.56L109.733 164.615C109.376 164.807 108.965 164.834 108.609 164.67Z" fill="#06033E"/>
<path d="M114.155 167.843L110.566 165.788C110.292 165.624 110.319 165.323 110.648 165.131L114.183 163.103C114.539 162.911 114.95 162.884 115.306 163.048L118.895 165.103C119.169 165.268 119.142 165.569 118.813 165.761L115.251 167.816C114.922 168.008 114.511 168.035 114.155 167.843Z" fill="#06033E"/>
<path d="M119.682 171.053L116.093 168.998C115.819 168.833 115.846 168.532 116.175 168.34L119.737 166.285C120.093 166.093 120.504 166.066 120.86 166.23L124.45 168.285C124.724 168.45 124.696 168.751 124.367 168.943L120.805 170.998C120.422 171.19 120.011 171.217 119.682 171.053Z" fill="#06033E"/>
<path d="M125.189 174.254L121.6 172.199C121.326 172.034 121.353 171.733 121.682 171.541L125.244 169.486C125.6 169.294 126.011 169.267 126.368 169.431L129.957 171.486C130.231 171.651 130.204 171.952 129.875 172.144L126.313 174.199C125.984 174.391 125.546 174.391 125.189 174.254Z" fill="#06033E"/>
<path d="M130.735 177.436L127.146 175.381C126.872 175.216 126.899 174.915 127.228 174.723L130.763 172.668C131.119 172.476 131.53 172.449 131.886 172.613L135.475 174.668C135.749 174.833 135.722 175.134 135.393 175.326L131.831 177.381C131.502 177.573 131.091 177.6 130.735 177.436Z" fill="#06033E"/>
<path d="M136.261 180.637L132.672 178.582C132.398 178.417 132.425 178.116 132.754 177.924L136.316 175.869C136.672 175.677 137.083 175.65 137.439 175.814L141.001 177.897C141.275 178.061 141.248 178.363 140.919 178.554L137.357 180.609C137.028 180.774 136.617 180.801 136.261 180.637Z" fill="#06033E"/>
<path d="M141.788 183.818L138.199 181.763C137.925 181.599 137.952 181.298 138.281 181.106L141.843 179.051C142.199 178.859 142.61 178.832 142.966 178.996L146.556 181.051C146.83 181.215 146.802 181.517 146.473 181.709L142.939 183.764C142.555 183.955 142.144 183.983 141.788 183.818Z" fill="#06033E"/>
<path d="M147.334 187.02L143.745 184.965C143.471 184.8 143.498 184.499 143.827 184.307L147.389 182.252C147.745 182.06 148.156 182.033 148.513 182.197L152.075 184.252C152.349 184.417 152.321 184.718 151.992 184.91L148.43 186.965C148.102 187.157 147.691 187.157 147.334 187.02Z" fill="#06033E"/>
<path d="M157.139 192.697L149.33 188.176C149.056 188.011 149.083 187.71 149.412 187.518L152.974 185.463C153.33 185.271 153.741 185.244 154.097 185.408L161.906 189.929C162.18 190.094 162.153 190.395 161.824 190.587L158.29 192.642C157.933 192.834 157.495 192.861 157.139 192.697Z" fill="#06033E"/>
<path d="M167.901 186.477L161.298 182.668C161.024 182.504 161.051 182.203 161.38 182.011L164.942 179.956C165.298 179.764 165.709 179.737 166.065 179.901L172.669 183.71C172.943 183.874 172.915 184.175 172.586 184.367L169.052 186.422C168.696 186.614 168.285 186.641 167.901 186.477Z" fill="#06033E"/>
<path d="M112.754 160.855L109.164 158.8C108.89 158.636 108.918 158.335 109.247 158.143L112.809 156.088C113.165 155.896 113.576 155.869 113.932 156.033L117.521 158.088C117.795 158.252 117.768 158.554 117.439 158.746L113.877 160.801C113.548 160.992 113.137 161.02 112.754 160.855Z" fill="#06033E"/>
<path d="M107.111 157.567L103.521 155.512C103.247 155.347 103.275 155.046 103.603 154.854L107.165 152.799C107.522 152.607 107.933 152.58 108.289 152.744L111.878 154.799C112.152 154.964 112.125 155.265 111.796 155.457L108.261 157.512C107.878 157.731 107.467 157.731 107.111 157.567Z" fill="#06033E"/>
<path d="M101.428 154.307L97.8387 152.252C97.5647 152.088 97.5921 151.786 97.9209 151.594L101.483 149.539C101.839 149.348 102.25 149.32 102.606 149.485L106.196 151.54C106.47 151.704 106.442 152.005 106.113 152.197L102.551 154.252C102.195 154.444 101.784 154.471 101.428 154.307Z" fill="#06033E"/>
<path d="M95.7655 151.018L92.1761 148.963C91.9021 148.799 91.9295 148.497 92.2583 148.306L95.8203 146.251C96.1765 146.059 96.5875 146.031 96.9437 146.196L100.533 148.251C100.807 148.415 100.78 148.717 100.451 148.908L96.8889 150.963C96.5327 151.183 96.1217 151.183 95.7655 151.018Z" fill="#06033E"/>
<path d="M118.281 164.037L114.691 161.982C114.417 161.818 114.445 161.516 114.773 161.325L118.308 159.27C118.664 159.078 119.075 159.05 119.431 159.215L123.021 161.27C123.295 161.434 123.267 161.736 122.939 161.927L119.377 163.982C119.075 164.174 118.637 164.202 118.281 164.037Z" fill="#06033E"/>
<path d="M123.827 167.238L120.238 165.183C119.964 165.019 119.991 164.718 120.32 164.526L123.882 162.471C124.238 162.279 124.649 162.252 125.005 162.416L128.595 164.471C128.869 164.635 128.841 164.937 128.512 165.129L124.95 167.184C124.594 167.375 124.183 167.403 123.827 167.238Z" fill="#06033E"/>
<path d="M129.353 170.42L125.764 168.365C125.49 168.201 125.517 167.899 125.846 167.708L129.408 165.653C129.764 165.461 130.175 165.433 130.532 165.598L134.121 167.653C134.395 167.817 134.368 168.119 134.039 168.31L130.477 170.365C130.121 170.557 129.71 170.585 129.353 170.42Z" fill="#06033E"/>
<path d="M134.88 173.621L131.29 171.566C131.016 171.402 131.044 171.101 131.373 170.909L134.907 168.854C135.263 168.662 135.674 168.635 136.031 168.799L139.62 170.854C139.894 171.018 139.867 171.32 139.538 171.512L135.976 173.567C135.647 173.758 135.236 173.786 134.88 173.621Z" fill="#06033E"/>
<path d="M140.426 176.803L136.836 174.748C136.562 174.584 136.59 174.282 136.918 174.091L140.48 172.036C140.837 171.844 141.248 171.816 141.604 171.981L145.193 174.063C145.467 174.228 145.44 174.529 145.111 174.721L141.576 176.776C141.193 176.94 140.782 176.968 140.426 176.803Z" fill="#06033E"/>
<path d="M145.933 180.004L142.344 177.949C142.07 177.785 142.097 177.483 142.426 177.292L145.988 175.237C146.344 175.045 146.755 175.017 147.111 175.182L150.701 177.237C150.975 177.401 150.947 177.703 150.618 177.894L147.056 179.949C146.728 180.141 146.317 180.169 145.933 180.004Z" fill="#06033E"/>
<path d="M151.46 183.188L147.87 181.133C147.596 180.968 147.624 180.667 147.953 180.475L151.515 178.448C151.871 178.256 152.282 178.228 152.638 178.393L156.227 180.448C156.501 180.612 156.474 180.914 156.145 181.105L152.583 183.16C152.227 183.352 151.816 183.352 151.46 183.188Z" fill="#06033E"/>
<path d="M157.006 186.397L153.416 184.342C153.142 184.178 153.17 183.876 153.499 183.684L157.061 181.629C157.417 181.438 157.828 181.41 158.184 181.575L161.773 183.63C162.047 183.794 162.02 184.095 161.691 184.287L158.129 186.342C157.773 186.534 157.362 186.561 157.006 186.397Z" fill="#06033E"/>
<path d="M162.533 189.569L158.943 187.514C158.669 187.35 158.697 187.048 159.025 186.856L162.587 184.801C162.944 184.61 163.355 184.582 163.711 184.747L167.3 186.802C167.574 186.966 167.547 187.267 167.218 187.459L163.656 189.514C163.3 189.733 162.889 189.733 162.533 189.569Z" fill="#06033E"/>
<path d="M109.854 152.964L106.265 150.909C105.991 150.745 106.018 150.443 106.347 150.252L109.909 148.197C110.265 148.005 110.676 147.977 111.033 148.142L114.622 150.197C114.896 150.361 114.869 150.663 114.54 150.854L110.978 152.882C110.649 153.101 110.211 153.129 109.854 152.964Z" fill="#06033E"/>
<path d="M104.347 149.783L100.758 147.728C100.484 147.563 100.511 147.262 100.84 147.07L104.402 145.015C104.758 144.823 105.169 144.796 105.525 144.96L109.115 147.015C109.389 147.18 109.361 147.481 109.032 147.673L105.47 149.728C105.142 149.92 104.703 149.947 104.347 149.783Z" fill="#06033E"/>
<path d="M98.8592 146.611L95.2698 144.556C94.9958 144.391 95.0232 144.09 95.352 143.898L98.914 141.843C99.2702 141.651 99.6812 141.624 100.037 141.788L103.627 143.843C103.901 144.008 103.873 144.309 103.545 144.501L99.9826 146.556C99.6264 146.748 99.2154 146.775 98.8592 146.611Z" fill="#06033E"/>
<path d="M93.3524 143.429L89.763 141.374C89.489 141.209 89.5164 140.908 89.8452 140.716L93.4072 138.661C93.7634 138.469 94.1744 138.442 94.5306 138.606L98.0926 140.661C98.3666 140.826 98.3392 141.127 98.0104 141.319L94.4484 143.374C94.1196 143.566 93.7086 143.566 93.3524 143.429Z" fill="#06033E"/>
<path d="M98.9955 140.142L95.4061 138.087C95.1321 137.923 95.1595 137.621 95.4883 137.429L96.6665 136.744C97.0227 136.553 97.4337 136.525 97.7899 136.69L101.379 138.745C101.653 138.909 101.626 139.21 101.297 139.402L100.119 140.087C99.7901 140.306 99.3517 140.306 98.9955 140.142Z" fill="#06033E"/>
<path d="M106.176 144.307L102.587 142.252C102.313 142.087 102.34 141.786 102.669 141.594L103.82 140.909C104.176 140.717 104.587 140.69 104.943 140.854L108.533 142.909C108.807 143.074 108.779 143.375 108.45 143.567L107.272 144.252C106.943 144.444 106.532 144.471 106.176 144.307Z" fill="#06033E"/>
<path d="M111.664 147.459L108.075 145.404C107.801 145.24 107.828 144.938 108.157 144.746L109.335 144.061C109.692 143.87 110.103 143.842 110.459 144.007L114.048 146.062C114.322 146.226 114.295 146.527 113.966 146.719L112.788 147.404C112.459 147.623 112.021 147.623 111.664 147.459Z" fill="#06033E"/>
<path d="M117.133 150.641L113.543 148.586C113.269 148.421 113.297 148.12 113.625 147.928L114.804 147.243C115.16 147.051 115.571 147.024 115.927 147.188L119.516 149.243C119.79 149.408 119.763 149.709 119.434 149.901L118.256 150.586C117.927 150.778 117.489 150.805 117.133 150.641Z" fill="#06033E"/>
<path d="M122.62 153.784L119.031 151.729C118.757 151.564 118.784 151.263 119.113 151.071L120.291 150.386C120.648 150.194 121.059 150.167 121.415 150.331L125.004 152.414C125.278 152.578 125.251 152.879 124.922 153.071L123.744 153.756C123.415 153.921 122.977 153.948 122.62 153.784Z" fill="#06033E"/>
<path d="M153.211 171.463L149.622 169.408C149.348 169.244 149.375 168.942 149.704 168.751L150.882 168.066C151.238 167.874 151.649 167.846 152.006 168.011L155.595 170.066C155.869 170.23 155.842 170.532 155.513 170.723L154.335 171.408C153.978 171.6 153.567 171.628 153.211 171.463Z" fill="#06033E"/>
<path d="M158.699 174.616L155.11 172.561C154.836 172.396 154.863 172.095 155.192 171.903L156.37 171.218C156.726 171.026 157.137 170.999 157.493 171.163L161.083 173.218C161.357 173.383 161.329 173.684 161.001 173.876L159.822 174.561C159.466 174.753 159.055 174.78 158.699 174.616Z" fill="#06033E"/>
<path d="M164.187 177.786L160.597 175.704C160.323 175.539 160.351 175.238 160.68 175.046L161.858 174.361C162.214 174.169 162.625 174.142 162.981 174.306L166.571 176.361C166.845 176.526 166.817 176.827 166.488 177.019L165.31 177.704C164.954 177.923 164.543 177.923 164.187 177.786Z" fill="#06033E"/>
<path d="M169.655 180.94L166.066 178.885C165.792 178.721 165.819 178.42 166.148 178.228L167.326 177.543C167.682 177.351 168.093 177.324 168.45 177.488L172.039 179.543C172.313 179.707 172.286 180.009 171.957 180.201L170.779 180.886C170.422 181.077 170.011 181.105 169.655 180.94Z" fill="#06033E"/>
<path d="M115.381 156.144L111.792 154.062C111.518 153.897 111.545 153.596 111.874 153.404L115.409 151.349C115.765 151.157 116.176 151.13 116.532 151.294L120.121 153.349C120.395 153.514 120.368 153.815 120.039 154.007L116.477 156.062C116.148 156.281 115.737 156.309 115.381 156.144Z" fill="#06033E"/>
<path d="M120.908 159.318L117.319 157.263C117.045 157.099 117.072 156.797 117.401 156.605L120.963 154.55C121.319 154.359 121.73 154.331 122.086 154.496L125.676 156.551C125.95 156.715 125.922 157.016 125.593 157.208L122.031 159.263C121.675 159.482 121.264 159.482 120.908 159.318Z" fill="#06033E"/>
<path d="M126.454 162.529L122.865 160.474C122.591 160.31 122.618 160.008 122.947 159.816L126.509 157.761C126.865 157.57 127.276 157.542 127.632 157.707L131.222 159.762C131.496 159.926 131.468 160.227 131.139 160.419L127.605 162.474C127.221 162.666 126.81 162.693 126.454 162.529Z" fill="#06033E"/>
<path d="M131.961 165.738L128.372 163.656C128.098 163.491 128.125 163.19 128.454 162.998L132.016 160.943C132.372 160.751 132.783 160.724 133.139 160.888L136.729 162.971C137.003 163.135 136.975 163.437 136.647 163.628L133.085 165.683C132.756 165.875 132.345 165.903 131.961 165.738Z" fill="#06033E"/>
<path d="M137.487 168.912L133.898 166.857C133.624 166.693 133.651 166.391 133.98 166.199L137.515 164.144C137.871 163.953 138.282 163.925 138.638 164.09L142.227 166.145C142.501 166.309 142.474 166.61 142.145 166.802L138.611 168.83C138.282 169.049 137.843 169.076 137.487 168.912Z" fill="#06033E"/>
<path d="M143.034 172.113L139.444 170.058C139.17 169.894 139.198 169.592 139.526 169.401L143.061 167.346C143.417 167.154 143.828 167.126 144.184 167.291L147.774 169.346C148.048 169.51 148.02 169.812 147.692 170.003L144.13 172.058C143.801 172.25 143.39 172.278 143.034 172.113Z" fill="#06033E"/>
<path d="M148.56 175.295L144.971 173.24C144.697 173.076 144.724 172.774 145.053 172.582L148.615 170.527C148.971 170.336 149.382 170.308 149.738 170.473L153.328 172.528C153.602 172.692 153.574 172.993 153.245 173.185L149.683 175.24C149.327 175.459 148.916 175.459 148.56 175.295Z" fill="#06033E"/>
<path d="M154.106 178.506L150.517 176.451C150.243 176.286 150.27 175.985 150.599 175.793L154.161 173.738C154.517 173.546 154.928 173.519 155.285 173.683L158.874 175.738C159.148 175.903 159.121 176.204 158.792 176.396L155.257 178.451C154.873 178.643 154.463 178.67 154.106 178.506Z" fill="#06033E"/>
<path d="M159.594 181.678L156.005 179.623C155.731 179.458 155.758 179.157 156.087 178.965L159.621 176.91C159.978 176.718 160.389 176.691 160.745 176.855L164.334 178.91C164.608 179.075 164.581 179.376 164.252 179.568L160.69 181.623C160.361 181.815 159.95 181.842 159.594 181.678Z" fill="#06033E"/>
<path d="M83.7705 156.527L73.2215 150.444C72.9475 150.28 72.9749 149.978 73.3037 149.786L76.8383 147.759C77.1945 147.567 77.6055 147.54 77.9617 147.704L88.5107 153.787C88.7847 153.951 88.7573 154.253 88.4285 154.444L84.8665 156.499C84.5377 156.664 84.1267 156.691 83.7705 156.527Z" fill="#06033E"/>
<path d="M151.706 195.767L141.157 189.684C140.883 189.519 140.91 189.218 141.239 189.026L144.801 186.971C145.157 186.779 145.568 186.752 145.924 186.916L156.473 192.999C156.747 193.164 156.72 193.465 156.391 193.657L152.829 195.712C152.473 195.904 152.062 195.931 151.706 195.767Z" fill="#06033E"/>
<path d="M129.568 190.04L125.978 187.985C125.704 187.821 125.732 187.519 126.061 187.328L130.28 184.889C130.636 184.697 131.047 184.67 131.404 184.834L134.993 186.889C135.267 187.054 135.24 187.355 134.911 187.547L130.664 189.985C130.335 190.177 129.924 190.205 129.568 190.04Z" fill="#06033E"/>
<path d="M89.4373 166.859L83.7107 163.543C83.4367 163.379 83.4641 163.077 83.7929 162.886L88.0125 160.447C88.3687 160.255 88.7797 160.228 89.1359 160.392L94.8625 163.708C95.1365 163.872 95.1091 164.173 94.7803 164.365L90.5607 166.804C90.2045 166.996 89.7935 167.023 89.4373 166.859Z" fill="#06033E"/>
<path d="M124.252 186.971L118.525 183.655C118.251 183.491 118.279 183.189 118.607 182.998L122.827 180.559C123.183 180.367 123.594 180.34 123.95 180.504L129.677 183.82C129.951 183.984 129.924 184.285 129.595 184.477L125.375 186.916C125.019 187.108 124.608 187.135 124.252 186.971Z" fill="#06033E"/>
<path d="M97.4159 171.461L91.6893 168.145C91.4153 167.981 91.4427 167.68 91.7715 167.488L95.9911 165.049C96.3473 164.857 96.7583 164.83 97.1145 164.994L102.841 168.31C103.115 168.474 103.088 168.776 102.759 168.967L98.5393 171.406C98.1831 171.625 97.7721 171.625 97.4159 171.461Z" fill="#06033E"/>
<path d="M97.161 165.052L122.068 179.437C122.232 179.492 122.342 179.684 122.287 179.875C122.259 179.985 122.177 180.067 122.068 180.095L117.766 182.588C117.41 182.78 116.999 182.78 116.642 182.588L91.7358 168.203L97.161 165.052Z" fill="#06033E"/>
<path d="M145.038 195.85L149.011 198.152C149.258 198.289 149.231 198.535 148.957 198.672L147.23 199.659C146.956 199.823 146.6 199.823 146.326 199.686L142.326 197.384C142.079 197.247 142.107 197.001 142.381 196.864L144.107 195.877C144.408 195.713 144.764 195.713 145.038 195.85Z" fill="#06033E"/>
<path d="M139.465 192.61L143.465 194.912C143.712 195.049 143.684 195.295 143.41 195.432L141.684 196.419C141.41 196.583 141.054 196.583 140.78 196.446L136.779 194.144C136.533 194.007 136.56 193.761 136.834 193.624L138.56 192.637C138.834 192.5 139.163 192.473 139.465 192.61Z" fill="#06033E"/>
<path d="M133.934 189.409L137.907 191.71C138.154 191.847 138.127 192.094 137.853 192.231L136.126 193.217C135.852 193.382 135.496 193.382 135.195 193.245L131.194 190.943C130.948 190.806 130.975 190.56 131.249 190.423L132.975 189.436C133.304 189.299 133.633 189.272 133.934 189.409Z" fill="#06033E"/>
<path d="M142.509 190.858L146.509 193.16C146.756 193.297 146.728 193.544 146.454 193.681L144.728 194.667C144.454 194.831 144.098 194.831 143.796 194.694L139.796 192.393C139.549 192.256 139.577 192.009 139.851 191.872L141.577 190.886C141.878 190.721 142.235 190.721 142.509 190.858Z" fill="#06033E"/>
</g>
<path d="M70.6917 156.033L67.1023 153.978C66.8009 153.814 66.8557 153.513 67.1845 153.321L71.4041 150.882C71.7603 150.69 72.1713 150.663 72.5275 150.827L76.1169 152.882C76.3909 153.047 76.3635 153.348 76.0347 153.54L71.8151 155.979C71.4589 156.198 71.0479 156.198 70.6917 156.033Z" fill="white"/>
<path d="M76.2264 159.244L72.637 157.189C72.363 157.025 72.3904 156.724 72.7192 156.532L76.9388 154.093C77.295 153.901 77.706 153.874 78.0622 154.038L81.6516 156.093C81.9256 156.258 81.8982 156.559 81.5694 156.751L77.3498 159.19C76.9936 159.381 76.5826 159.409 76.2264 159.244Z" fill="white"/>
<path d="M81.7533 162.416L78.1639 160.361C77.8899 160.197 77.9173 159.896 78.2461 159.704L82.4657 157.265C82.8219 157.073 83.2329 157.046 83.5891 157.21L87.1785 159.265C87.4525 159.43 87.4251 159.731 87.0963 159.923L82.8767 162.362C82.5205 162.581 82.1095 162.581 81.7533 162.416Z" fill="white"/>
<path d="M89.4012 159.785L85.8118 157.73C85.5378 157.566 85.5652 157.264 85.894 157.072L89.456 155.017C89.8122 154.826 90.2232 154.798 90.5794 154.963L94.1688 157.018C94.4428 157.182 94.4154 157.483 94.0866 157.675L90.5246 159.73C90.1684 159.922 89.7574 159.949 89.4012 159.785Z" fill="white"/>
<path d="M94.9471 162.994L91.3577 160.912C91.0837 160.747 91.1111 160.446 91.4399 160.254L95.0019 158.199C95.3581 158.007 95.7691 157.98 96.1253 158.144L99.7147 160.199C99.9887 160.364 99.9613 160.665 99.6325 160.857L96.0705 162.912C95.7143 163.131 95.3033 163.159 94.9471 162.994Z" fill="white"/>
<path d="M100.454 166.168L96.865 164.113C96.591 163.949 96.6184 163.647 96.9472 163.455L100.509 161.4C100.865 161.209 101.276 161.181 101.633 161.346L105.222 163.401C105.496 163.565 105.469 163.866 105.14 164.058L101.578 166.113C101.249 166.332 100.838 166.332 100.454 166.168Z" fill="white"/>
<path d="M105.981 169.379L102.392 167.324C102.118 167.16 102.145 166.858 102.474 166.666L106.009 164.611C106.365 164.42 106.776 164.392 107.132 164.557L110.721 166.612C110.995 166.776 110.968 167.077 110.639 167.269L107.077 169.324C106.776 169.516 106.337 169.543 105.981 169.379Z" fill="white"/>
<path d="M111.508 172.561L107.919 170.506C107.645 170.341 107.672 170.04 108.001 169.848L111.563 167.793C111.919 167.601 112.33 167.574 112.686 167.738L116.276 169.793C116.55 169.958 116.522 170.259 116.194 170.451L112.632 172.506C112.275 172.725 111.864 172.725 111.508 172.561Z" fill="white"/>
<path d="M117.054 175.762L113.465 173.707C113.191 173.543 113.218 173.241 113.547 173.049L117.109 170.994C117.465 170.803 117.876 170.775 118.232 170.94L121.822 172.995C122.096 173.159 122.068 173.46 121.739 173.652L118.205 175.707C117.821 175.899 117.41 175.926 117.054 175.762Z" fill="white"/>
<path d="M122.581 178.944L118.992 176.889C118.718 176.724 118.745 176.423 119.074 176.231L122.636 174.176C122.992 173.984 123.403 173.957 123.759 174.121L127.349 176.176C127.623 176.341 127.595 176.642 127.266 176.834L123.704 178.889C123.348 179.108 122.937 179.108 122.581 178.944Z" fill="white"/>
<path d="M128.127 182.145L124.537 180.09C124.263 179.925 124.291 179.624 124.62 179.432L128.182 177.377C128.538 177.185 128.949 177.158 129.305 177.322L132.894 179.377C133.168 179.542 133.141 179.843 132.812 180.035L129.25 182.09C128.894 182.282 128.483 182.309 128.127 182.145Z" fill="white"/>
<path d="M133.634 185.327L130.045 183.272C129.771 183.107 129.798 182.806 130.127 182.614L133.689 180.559C134.045 180.367 134.456 180.34 134.812 180.504L138.402 182.559C138.676 182.724 138.648 183.025 138.32 183.217L134.758 185.272C134.429 185.491 133.99 185.491 133.634 185.327Z" fill="white"/>
<path d="M139.161 188.528L135.572 186.473C135.298 186.308 135.325 186.007 135.654 185.815L139.216 183.76C139.572 183.568 139.983 183.541 140.339 183.705L143.929 185.76C144.203 185.925 144.175 186.226 143.846 186.418L140.284 188.473C139.928 188.665 139.517 188.692 139.161 188.528Z" fill="white"/>
<path d="M97.5472 158.285L93.9852 156.202C93.7112 156.038 93.7386 155.737 94.0674 155.545L97.602 153.49C97.9582 153.298 98.3692 153.271 98.7254 153.435L102.315 155.49C102.589 155.654 102.561 155.956 102.233 156.148L98.698 158.203C98.3418 158.422 97.9034 158.449 97.5472 158.285Z" fill="white"/>
<path d="M91.931 155.045L88.3416 152.962C88.0676 152.798 88.095 152.497 88.4238 152.305L91.9858 150.25C92.342 150.058 92.753 150.031 93.1092 150.195L96.6986 152.25C96.9726 152.414 96.9452 152.716 96.6164 152.908L93.0544 154.963C92.7256 155.182 92.3146 155.209 91.931 155.045Z" fill="white"/>
<path d="M86.311 151.787L78.6116 147.348C78.3376 147.184 78.365 146.882 78.6938 146.69L82.2558 144.635C82.612 144.444 83.023 144.416 83.3792 144.581L91.0786 149.019C91.3526 149.184 91.3252 149.485 90.9964 149.677L87.4344 151.732C87.0782 151.951 86.6672 151.951 86.311 151.787Z" fill="white"/>
<path d="M90.2494 147.842L84.0022 144.225C83.7282 144.06 83.7556 143.759 84.0844 143.567L87.6464 141.512C88.0026 141.32 88.4136 141.293 88.7698 141.457L95.017 145.074C95.291 145.239 95.2636 145.54 94.9348 145.732L91.3728 147.787C91.0166 147.979 90.6056 148.006 90.2494 147.842Z" fill="white"/>
<path d="M103.082 161.459L99.4925 159.404C99.2185 159.239 99.2459 158.938 99.5747 158.746L103.137 156.691C103.493 156.499 103.904 156.472 104.26 156.636L107.849 158.691C108.123 158.856 108.096 159.157 107.767 159.349L104.205 161.404C103.849 161.623 103.438 161.623 103.082 161.459Z" fill="white"/>
<path d="M108.608 164.67L105.019 162.615C104.745 162.45 104.772 162.149 105.101 161.957L108.663 159.902C109.019 159.71 109.43 159.683 109.786 159.847L113.376 161.902C113.65 162.067 113.622 162.368 113.294 162.56L109.732 164.615C109.375 164.807 108.964 164.834 108.608 164.67Z" fill="white"/>
<path d="M114.155 167.843L110.565 165.788C110.291 165.624 110.319 165.323 110.647 165.131L114.182 163.103C114.538 162.911 114.949 162.884 115.305 163.048L118.895 165.103C119.169 165.268 119.141 165.569 118.813 165.761L115.251 167.816C114.922 168.008 114.511 168.035 114.155 167.843Z" fill="white"/>
<path d="M119.681 171.053L116.092 168.998C115.818 168.833 115.845 168.532 116.174 168.34L119.736 166.285C120.092 166.093 120.503 166.066 120.86 166.23L124.449 168.285C124.723 168.45 124.696 168.751 124.367 168.943L120.805 170.998C120.421 171.19 120.01 171.217 119.681 171.053Z" fill="white"/>
<path d="M125.188 174.254L121.599 172.199C121.325 172.034 121.352 171.733 121.681 171.541L125.243 169.486C125.599 169.294 126.01 169.267 126.367 169.431L129.956 171.486C130.23 171.651 130.203 171.952 129.874 172.144L126.312 174.199C125.983 174.391 125.545 174.391 125.188 174.254Z" fill="white"/>
<path d="M130.735 177.436L127.145 175.381C126.871 175.216 126.899 174.915 127.228 174.723L130.762 172.668C131.118 172.476 131.529 172.449 131.886 172.613L135.475 174.668C135.749 174.833 135.722 175.134 135.393 175.326L131.831 177.381C131.502 177.573 131.091 177.6 130.735 177.436Z" fill="white"/>
<path d="M136.262 180.637L132.672 178.582C132.398 178.417 132.426 178.116 132.754 177.924L136.316 175.869C136.673 175.677 137.084 175.65 137.44 175.814L141.002 177.897C141.276 178.061 141.248 178.363 140.92 178.554L137.358 180.609C137.029 180.774 136.618 180.801 136.262 180.637Z" fill="white"/>
<path d="M141.788 183.818L138.199 181.763C137.925 181.599 137.952 181.298 138.281 181.106L141.843 179.051C142.199 178.859 142.61 178.832 142.966 178.996L146.556 181.051C146.83 181.215 146.802 181.517 146.473 181.709L142.939 183.764C142.555 183.955 142.144 183.983 141.788 183.818Z" fill="white"/>
<path d="M147.334 187.02L143.745 184.965C143.471 184.8 143.498 184.499 143.827 184.307L147.389 182.252C147.745 182.06 148.156 182.033 148.513 182.197L152.075 184.252C152.349 184.417 152.321 184.718 151.992 184.91L148.43 186.965C148.102 187.157 147.691 187.157 147.334 187.02Z" fill="white"/>
<path d="M157.139 192.697L149.33 188.176C149.056 188.011 149.083 187.71 149.412 187.518L152.974 185.463C153.33 185.271 153.741 185.244 154.097 185.408L161.906 189.929C162.18 190.094 162.153 190.395 161.824 190.587L158.29 192.642C157.933 192.834 157.495 192.861 157.139 192.697Z" fill="white"/>
<path d="M167.902 186.477L161.298 182.668C161.024 182.504 161.052 182.203 161.38 182.011L164.942 179.956C165.299 179.764 165.71 179.737 166.066 179.901L172.669 183.71C172.943 183.874 172.916 184.175 172.587 184.367L169.052 186.422C168.696 186.614 168.285 186.641 167.902 186.477Z" fill="white"/>
<path d="M112.754 160.855L109.164 158.8C108.89 158.636 108.918 158.335 109.247 158.143L112.809 156.088C113.165 155.896 113.576 155.869 113.932 156.033L117.521 158.088C117.795 158.252 117.768 158.554 117.439 158.746L113.877 160.801C113.548 160.992 113.137 161.02 112.754 160.855Z" fill="white"/>
<path d="M107.11 157.567L103.521 155.512C103.247 155.347 103.274 155.046 103.603 154.854L107.165 152.799C107.521 152.607 107.932 152.58 108.288 152.744L111.878 154.799C112.152 154.964 112.124 155.265 111.796 155.457L108.261 157.512C107.877 157.731 107.466 157.731 107.11 157.567Z" fill="white"/>
<path d="M101.428 154.307L97.8382 152.252C97.5642 152.088 97.5916 151.786 97.9204 151.594L101.482 149.539C101.839 149.348 102.25 149.32 102.606 149.485L106.195 151.54C106.469 151.704 106.442 152.005 106.113 152.197L102.551 154.252C102.195 154.444 101.784 154.471 101.428 154.307Z" fill="white"/>
<path d="M95.7645 151.018L92.1751 148.963C91.9011 148.799 91.9285 148.497 92.2573 148.306L95.8193 146.251C96.1755 146.059 96.5865 146.031 96.9427 146.196L100.532 148.251C100.806 148.415 100.779 148.717 100.45 148.908L96.8879 150.963C96.5317 151.183 96.1207 151.183 95.7645 151.018Z" fill="white"/>
<path d="M118.28 164.037L114.691 161.982C114.417 161.818 114.444 161.516 114.773 161.325L118.308 159.27C118.664 159.078 119.075 159.05 119.431 159.215L123.02 161.27C123.294 161.434 123.267 161.736 122.938 161.927L119.376 163.982C119.075 164.174 118.636 164.202 118.28 164.037Z" fill="white"/>
<path d="M123.827 167.238L120.237 165.183C119.963 165.019 119.991 164.718 120.319 164.526L123.881 162.471C124.238 162.279 124.649 162.252 125.005 162.416L128.594 164.471C128.868 164.635 128.841 164.937 128.512 165.129L124.95 167.184C124.594 167.375 124.183 167.403 123.827 167.238Z" fill="white"/>
<path d="M129.353 170.42L125.763 168.365C125.489 168.201 125.517 167.899 125.846 167.708L129.408 165.653C129.764 165.461 130.175 165.433 130.531 165.598L134.12 167.653C134.394 167.817 134.367 168.119 134.038 168.31L130.476 170.365C130.12 170.557 129.709 170.585 129.353 170.42Z" fill="white"/>
<path d="M134.899 173.621L131.31 171.566C131.036 171.402 131.063 171.101 131.392 170.909L134.927 168.854C135.283 168.662 135.694 168.635 136.05 168.799L139.639 170.854C139.913 171.018 139.886 171.32 139.557 171.512L135.995 173.567C135.666 173.758 135.255 173.786 134.899 173.621Z" fill="white"/>
<path d="M140.426 176.803L136.837 174.748C136.563 174.584 136.59 174.282 136.919 174.09L140.481 172.035C140.837 171.844 141.248 171.816 141.604 171.981L145.194 174.063C145.468 174.227 145.44 174.529 145.112 174.721L141.577 176.776C141.193 176.94 140.782 176.967 140.426 176.803Z" fill="white"/>
<path d="M145.933 180.014L142.344 177.959C142.07 177.795 142.097 177.493 142.426 177.301L145.988 175.246C146.344 175.055 146.755 175.027 147.112 175.192L150.701 177.247C150.975 177.411 150.948 177.712 150.619 177.904L147.057 179.959C146.728 180.151 146.317 180.178 145.933 180.014Z" fill="white"/>
<path d="M151.46 183.188L147.87 181.133C147.596 180.968 147.624 180.667 147.953 180.475L151.515 178.448C151.871 178.256 152.282 178.228 152.638 178.393L156.227 180.448C156.501 180.612 156.474 180.914 156.145 181.105L152.583 183.16C152.227 183.352 151.816 183.352 151.46 183.188Z" fill="white"/>
<path d="M157.006 186.397L153.417 184.342C153.143 184.178 153.17 183.876 153.499 183.684L157.061 181.629C157.417 181.438 157.828 181.41 158.184 181.575L161.774 183.63C162.048 183.794 162.02 184.095 161.692 184.287L158.13 186.342C157.773 186.534 157.362 186.561 157.006 186.397Z" fill="white"/>
<path d="M162.533 189.569L158.943 187.514C158.669 187.35 158.697 187.048 159.025 186.856L162.587 184.801C162.944 184.61 163.355 184.582 163.711 184.747L167.3 186.802C167.574 186.966 167.547 187.267 167.218 187.459L163.656 189.514C163.3 189.733 162.889 189.733 162.533 189.569Z" fill="white"/>
<path d="M109.854 152.964L106.264 150.909C105.99 150.745 106.018 150.443 106.347 150.252L109.909 148.197C110.265 148.005 110.676 147.977 111.032 148.142L114.621 150.197C114.895 150.361 114.868 150.663 114.539 150.854L110.977 152.882C110.648 153.101 110.21 153.129 109.854 152.964Z" fill="white"/>
<path d="M104.347 149.783L100.757 147.728C100.483 147.563 100.511 147.262 100.839 147.07L104.401 145.015C104.758 144.823 105.169 144.796 105.525 144.96L109.114 147.015C109.388 147.18 109.361 147.481 109.032 147.673L105.47 149.728C105.141 149.92 104.703 149.947 104.347 149.783Z" fill="white"/>
<path d="M98.8587 146.611L95.2693 144.556C94.9953 144.391 95.0227 144.09 95.3515 143.898L98.9135 141.843C99.2697 141.651 99.6807 141.624 100.037 141.788L103.626 143.843C103.9 144.008 103.873 144.309 103.544 144.501L99.9821 146.556C99.6259 146.748 99.2149 146.775 98.8587 146.611Z" fill="white"/>
<path d="M93.3514 143.429L89.762 141.374C89.488 141.209 89.5154 140.908 89.8442 140.716L93.4062 138.661C93.7624 138.469 94.1734 138.442 94.5296 138.606L98.0916 140.661C98.3656 140.826 98.3382 141.127 98.0094 141.319L94.4474 143.374C94.1186 143.566 93.7076 143.566 93.3514 143.429Z" fill="white"/>
<path d="M98.995 140.142L95.4056 138.087C95.1316 137.923 95.159 137.621 95.4878 137.429L96.666 136.744C97.0222 136.553 97.4332 136.525 97.7894 136.69L101.379 138.745C101.653 138.909 101.625 139.21 101.297 139.402L100.118 140.087C99.7896 140.306 99.3512 140.306 98.995 140.142Z" fill="white"/>
<path d="M106.176 144.306L102.587 142.251C102.313 142.087 102.34 141.786 102.669 141.594L103.82 140.909C104.176 140.717 104.587 140.69 104.943 140.854L108.533 142.909C108.807 143.073 108.779 143.375 108.45 143.567L107.272 144.252C106.943 144.443 106.532 144.471 106.176 144.306Z" fill="white"/>
<path d="M111.644 147.459L108.055 145.404C107.781 145.24 107.808 144.938 108.137 144.746L109.315 144.061C109.672 143.87 110.083 143.842 110.439 144.007L114.028 146.062C114.302 146.226 114.275 146.527 113.946 146.719L112.768 147.404C112.439 147.623 112.001 147.623 111.644 147.459Z" fill="white"/>
<path d="M117.132 150.641L113.543 148.586C113.269 148.421 113.296 148.12 113.625 147.928L114.803 147.243C115.159 147.051 115.57 147.024 115.927 147.188L119.516 149.243C119.79 149.408 119.763 149.709 119.434 149.901L118.256 150.586C117.927 150.778 117.488 150.805 117.132 150.641Z" fill="white"/>
<path d="M122.62 153.784L119.031 151.729C118.757 151.564 118.784 151.263 119.113 151.071L120.291 150.386C120.647 150.194 121.058 150.167 121.414 150.331L125.004 152.414C125.278 152.578 125.25 152.879 124.922 153.071L123.743 153.756C123.415 153.921 122.976 153.948 122.62 153.784Z" fill="white"/>
<path d="M153.211 171.463L149.622 169.408C149.348 169.244 149.375 168.942 149.704 168.751L150.882 168.066C151.238 167.874 151.649 167.846 152.006 168.011L155.595 170.066C155.869 170.23 155.842 170.532 155.513 170.723L154.335 171.408C153.978 171.6 153.567 171.628 153.211 171.463Z" fill="white"/>
<path d="M158.699 174.616L155.11 172.561C154.836 172.396 154.863 172.095 155.192 171.903L156.37 171.218C156.726 171.026 157.137 170.999 157.493 171.163L161.083 173.218C161.357 173.383 161.329 173.684 161.001 173.876L159.822 174.561C159.466 174.753 159.055 174.78 158.699 174.616Z" fill="white"/>
<path d="M164.187 177.786L160.597 175.704C160.323 175.539 160.351 175.238 160.68 175.046L161.858 174.361C162.214 174.169 162.625 174.142 162.981 174.306L166.571 176.361C166.845 176.526 166.817 176.827 166.488 177.019L165.31 177.704C164.954 177.923 164.543 177.923 164.187 177.786Z" fill="white"/>
<path d="M169.655 180.94L166.066 178.885C165.792 178.721 165.819 178.419 166.148 178.228L167.326 177.543C167.682 177.351 168.093 177.323 168.45 177.488L172.039 179.543C172.313 179.707 172.286 180.009 171.957 180.2L170.779 180.885C170.422 181.077 170.011 181.105 169.655 180.94Z" fill="white"/>
<path d="M115.381 156.144L111.791 154.062C111.517 153.897 111.545 153.596 111.874 153.404L115.408 151.349C115.764 151.157 116.175 151.13 116.532 151.294L120.121 153.349C120.395 153.514 120.368 153.815 120.039 154.007L116.477 156.062C116.148 156.281 115.737 156.309 115.381 156.144Z" fill="white"/>
<path d="M120.907 159.318L117.318 157.263C117.044 157.099 117.071 156.797 117.4 156.605L120.962 154.55C121.318 154.359 121.729 154.331 122.085 154.496L125.675 156.551C125.949 156.715 125.921 157.016 125.592 157.208L122.03 159.263C121.674 159.482 121.263 159.482 120.907 159.318Z" fill="white"/>
<path d="M126.453 162.529L122.864 160.474C122.59 160.31 122.617 160.008 122.946 159.816L126.508 157.761C126.864 157.57 127.275 157.542 127.632 157.707L131.221 159.762C131.495 159.926 131.468 160.227 131.139 160.419L127.604 162.474C127.221 162.666 126.81 162.693 126.453 162.529Z" fill="white"/>
<path d="M131.961 165.738L128.371 163.656C128.097 163.491 128.125 163.19 128.454 162.998L132.016 160.943C132.372 160.751 132.783 160.724 133.139 160.888L136.728 162.971C137.002 163.135 136.975 163.437 136.646 163.628L133.084 165.683C132.755 165.875 132.344 165.903 131.961 165.738Z" fill="white"/>
<path d="M137.488 168.912L133.898 166.857C133.624 166.693 133.652 166.391 133.98 166.199L137.515 164.144C137.871 163.953 138.282 163.925 138.638 164.09L142.228 166.145C142.502 166.309 142.474 166.61 142.146 166.802L138.611 168.83C138.282 169.049 137.844 169.076 137.488 168.912Z" fill="white"/>
<path d="M143.034 172.123L139.444 170.068C139.17 169.903 139.198 169.602 139.526 169.41L143.061 167.355C143.417 167.163 143.828 167.136 144.184 167.3L147.774 169.355C148.048 169.52 148.02 169.821 147.692 170.013L144.13 172.068C143.801 172.26 143.39 172.287 143.034 172.123Z" fill="white"/>
<path d="M148.56 175.295L144.971 173.24C144.697 173.076 144.724 172.774 145.053 172.582L148.615 170.527C148.971 170.336 149.382 170.308 149.739 170.473L153.328 172.528C153.602 172.692 153.575 172.993 153.246 173.185L149.684 175.24C149.328 175.459 148.917 175.459 148.56 175.295Z" fill="white"/>
<path d="M154.106 178.506L150.517 176.451C150.243 176.286 150.27 175.985 150.599 175.793L154.161 173.738C154.517 173.546 154.928 173.519 155.285 173.683L158.874 175.738C159.148 175.903 159.121 176.204 158.792 176.396L155.257 178.451C154.873 178.643 154.463 178.67 154.106 178.506Z" fill="white"/>
<path d="M159.614 181.678L156.024 179.623C155.75 179.458 155.778 179.157 156.106 178.965L159.641 176.91C159.997 176.718 160.408 176.691 160.764 176.855L164.354 178.91C164.628 179.075 164.6 179.376 164.272 179.568L160.71 181.623C160.381 181.815 159.97 181.842 159.614 181.678Z" fill="white"/>
<path d="M83.77 156.527L73.221 150.444C72.947 150.28 72.9744 149.978 73.3032 149.786L76.8378 147.759C77.194 147.567 77.605 147.54 77.9612 147.704L88.5102 153.787C88.7842 153.951 88.7568 154.253 88.428 154.444L84.866 156.499C84.5372 156.664 84.1262 156.691 83.77 156.527Z" fill="white"/>
<path d="M151.706 195.767L141.157 189.684C140.883 189.519 140.91 189.218 141.239 189.026L144.801 186.971C145.157 186.779 145.568 186.752 145.924 186.916L156.473 192.999C156.747 193.164 156.72 193.465 156.391 193.657L152.829 195.712C152.473 195.904 152.062 195.931 151.706 195.767Z" fill="white"/>
<path d="M129.567 190.04L125.978 187.985C125.704 187.821 125.731 187.519 126.06 187.328L130.28 184.889C130.636 184.697 131.047 184.67 131.403 184.834L134.992 186.889C135.266 187.054 135.239 187.355 134.91 187.547L130.663 189.985C130.334 190.177 129.923 190.205 129.567 190.04Z" fill="white"/>
<path d="M89.4369 166.859L83.7103 163.543C83.4363 163.379 83.4637 163.077 83.7925 162.886L88.0121 160.447C88.3683 160.255 88.7793 160.228 89.1355 160.392L94.8621 163.708C95.1361 163.872 95.1087 164.173 94.7799 164.365L90.5603 166.804C90.2041 166.996 89.7931 167.023 89.4369 166.859Z" fill="white"/>
<path d="M124.251 186.971L118.525 183.655C118.251 183.491 118.278 183.189 118.607 182.998L122.827 180.559C123.183 180.367 123.594 180.34 123.95 180.504L129.677 183.82C129.951 183.984 129.923 184.285 129.594 184.477L125.375 186.916C125.019 187.108 124.608 187.135 124.251 186.971Z" fill="white"/>
<path d="M97.4154 171.461L91.6888 168.145C91.4148 167.981 91.4422 167.68 91.771 167.488L95.9906 165.049C96.3468 164.857 96.7578 164.83 97.114 164.994L102.841 168.31C103.115 168.474 103.087 168.776 102.758 168.967L98.5388 171.406C98.1826 171.625 97.7716 171.625 97.4154 171.461Z" fill="white"/>
<path d="M97.1606 165.052L122.067 179.437C122.232 179.492 122.341 179.684 122.286 179.875C122.259 179.985 122.177 180.067 122.067 180.095L117.765 182.588C117.409 182.78 116.998 182.78 116.642 182.588L91.7354 168.203L97.1606 165.052Z" fill="white"/>
<path d="M145.019 195.85L148.992 198.152C149.239 198.289 149.212 198.535 148.938 198.672L147.211 199.659C146.937 199.823 146.581 199.823 146.307 199.686L142.307 197.384C142.06 197.247 142.088 197.001 142.362 196.864L144.088 195.877C144.389 195.713 144.745 195.713 145.019 195.85Z" fill="white"/>
<path d="M139.465 192.61L143.465 194.912C143.712 195.049 143.685 195.295 143.411 195.432L141.684 196.419C141.41 196.583 141.054 196.583 140.78 196.446L136.78 194.144C136.533 194.007 136.561 193.761 136.835 193.624L138.561 192.637C138.835 192.5 139.164 192.473 139.465 192.61Z" fill="white"/>
<path d="M133.935 189.409L137.908 191.71C138.155 191.847 138.127 192.094 137.853 192.231L136.127 193.217C135.853 193.382 135.497 193.382 135.195 193.245L131.195 190.943C130.948 190.806 130.976 190.56 131.25 190.423L132.976 189.436C133.305 189.299 133.634 189.272 133.935 189.409Z" fill="white"/>
<path d="M142.509 190.858L146.509 193.16C146.756 193.297 146.728 193.544 146.454 193.681L144.728 194.667C144.454 194.831 144.098 194.831 143.796 194.694L139.796 192.393C139.549 192.256 139.577 192.009 139.851 191.872L141.577 190.886C141.878 190.721 142.235 190.721 142.509 190.858Z" fill="white"/>
<path d="M201.025 184.392L95.3979 123.399C93.7265 122.44 92.8771 120.111 93.4525 118.193L117.345 40.624C117.948 38.706 119.757 37.9114 121.428 38.8704L227.055 99.8628C228.726 100.822 229.576 103.151 229 105.069L205.108 182.611C204.532 184.556 202.696 185.351 201.025 184.392Z" fill="url(#paint3_linear_647_42866)"/>
<path d="M200.039 181.684L97.563 122.473C95.9738 121.541 95.1518 119.322 95.6998 117.486L118.551 43.3415C119.127 41.5057 120.88 40.7659 122.442 41.6701L224.918 100.882C226.507 101.813 227.329 104.033 226.781 105.868L203.93 180.013C203.382 181.849 201.628 182.588 200.039 181.684Z" fill="url(#paint4_linear_647_42866)"/>
<path opacity="0.4" d="M200.039 181.684L97.563 122.473C95.9738 121.541 95.1518 119.322 95.6998 117.486L118.551 43.3415C119.127 41.5057 120.88 40.7659 122.442 41.6701L224.918 100.882C226.507 101.813 227.329 104.033 226.781 105.868L203.93 180.013C203.382 181.849 201.628 182.588 200.039 181.684Z" fill="#06033E"/>
<path d="M200.039 181.684L97.563 122.473C95.9738 121.541 95.1518 119.322 95.6998 117.486L118.551 43.3415C119.127 41.5057 120.88 40.7659 122.442 41.6701L224.918 100.882C226.507 101.813 227.329 104.033 226.781 105.868L203.93 180.013C203.382 181.849 201.628 182.588 200.039 181.684Z" fill="black"/>
<g opacity="0.3">
<path d="M145.325 76.4617L133.597 69.3925C133.241 69.1733 132.83 69.2829 132.721 69.6117C132.638 70.0227 132.803 70.4337 133.159 70.6255L144.886 77.6947C145.242 77.9139 145.653 77.8043 145.763 77.4755C145.873 77.0645 145.681 76.6535 145.325 76.4617Z" fill="white"/>
<path d="M178.087 96.1642L158.633 84.4644C158.277 84.2452 157.866 84.3548 157.756 84.6836C157.647 85.0946 157.839 85.5056 158.195 85.6974L177.649 97.3972C178.005 97.6164 178.416 97.5068 178.526 97.178C178.608 96.767 178.443 96.3834 178.087 96.1642Z" fill="white"/>
<path d="M154.774 82.1302L149.321 78.8696C148.965 78.6504 148.554 78.76 148.444 79.0888C148.362 79.4998 148.526 79.9108 148.883 80.1026L154.308 83.3632C154.664 83.5824 155.075 83.4728 155.185 83.144C155.294 82.7604 155.13 82.3494 154.774 82.1302Z" fill="white"/>
<path d="M133.514 82.874L129.705 80.5724C129.349 80.3532 128.938 80.4628 128.828 80.7916C128.746 81.2026 128.911 81.6136 129.267 81.8054L133.075 84.107C133.432 84.3262 133.843 84.2166 133.952 83.8878C134.034 83.4768 133.87 83.0658 133.514 82.874Z" fill="white"/>
<path d="M150.008 92.8198L136.555 84.7368C136.199 84.5176 135.788 84.6272 135.678 84.956C135.596 85.367 135.76 85.778 136.116 85.9698L149.597 94.0528C149.953 94.272 150.364 94.1624 150.474 93.8336C150.556 93.4226 150.392 93.0116 150.008 92.8198Z" fill="white"/>
<path d="M157.363 97.2064L153.554 94.9048C153.198 94.6856 152.787 94.7952 152.677 95.124C152.568 95.535 152.759 95.946 153.116 96.1378L156.924 98.4394C157.28 98.6586 157.691 98.549 157.801 98.2202C157.911 97.8366 157.719 97.4256 157.363 97.2064Z" fill="white"/>
<path d="M173.867 107.181L160.413 99.0985C160.057 98.8793 159.646 98.9889 159.536 99.3177C159.454 99.7287 159.619 100.14 159.975 100.331L173.428 108.414C173.784 108.634 174.195 108.524 174.305 108.195C174.387 107.784 174.223 107.373 173.867 107.181Z" fill="white"/>
<path d="M148.28 98.5148L127.73 86.1574C127.374 85.9382 126.963 86.0478 126.854 86.3766C126.744 86.7876 126.936 87.1986 127.292 87.3904L147.842 99.7478C148.198 99.967 148.609 99.8574 148.719 99.5286C148.828 99.1176 148.637 98.7066 148.28 98.5148Z" fill="white"/>
<path d="M168.241 110.489L152.814 101.2C152.458 100.981 152.047 101.091 151.938 101.419C151.828 101.83 152.02 102.241 152.376 102.433L167.802 111.722C168.158 111.941 168.569 111.831 168.679 111.503C168.789 111.092 168.597 110.681 168.241 110.489Z" fill="white"/>
<path d="M137.521 98.7922L125.794 91.7231C125.437 91.5039 125.026 91.6134 124.917 91.9422C124.835 92.3532 124.999 92.7643 125.355 92.9561L137.082 99.9979C137.439 100.217 137.85 100.107 137.959 99.7786C138.069 99.395 137.877 98.984 137.521 98.7922Z" fill="white"/>
<path d="M156.04 109.941L141.518 101.2C141.162 100.981 140.751 101.091 140.641 101.419C140.559 101.83 140.723 102.241 141.079 102.433L155.601 111.174C155.958 111.393 156.369 111.283 156.478 110.955C156.588 110.544 156.396 110.133 156.04 109.941Z" fill="white"/>
<path d="M188.052 102.164L182.627 98.9039C182.271 98.6847 181.86 98.7943 181.75 99.1231C181.641 99.5341 181.833 99.9451 182.189 100.137L187.614 103.397C187.97 103.617 188.381 103.507 188.491 103.178C188.601 102.767 188.409 102.356 188.052 102.164Z" fill="white"/>
<path d="M200.452 109.62L192.095 104.606C191.739 104.387 191.328 104.496 191.218 104.825C191.136 105.236 191.3 105.647 191.656 105.839L199.986 110.853C200.342 111.072 200.753 110.963 200.863 110.634C201 110.25 200.808 109.839 200.452 109.62Z" fill="white"/>
<path d="M186.792 108.137L208.602 121.261C208.958 121.453 209.15 121.864 209.041 122.275C208.931 122.604 208.52 122.713 208.164 122.494L186.353 109.397C185.997 109.205 185.805 108.794 185.915 108.383C186.025 108.027 186.436 107.917 186.792 108.137Z" fill="white"/>
<path d="M179.65 110.96L201.46 124.084C201.816 124.276 202.008 124.687 201.899 125.098C201.789 125.427 201.378 125.536 201.022 125.317L179.211 112.193C178.855 112.001 178.663 111.59 178.773 111.179C178.91 110.85 179.294 110.74 179.65 110.96Z" fill="white"/>
<path d="M143.765 82.2751L163.219 93.9749C163.576 94.1667 163.767 94.5777 163.658 94.9887C163.548 95.3175 163.137 95.4271 162.781 95.2079L143.327 83.5081C142.971 83.3163 142.779 82.9053 142.889 82.4943C142.998 82.1655 143.409 82.0559 143.765 82.2751Z" fill="white"/>
<path d="M177.334 102.465L182.76 105.726C183.116 105.918 183.28 106.329 183.198 106.74C183.088 107.068 182.677 107.178 182.321 106.959L176.896 103.698C176.54 103.506 176.348 103.095 176.458 102.684C176.595 102.356 176.978 102.246 177.334 102.465Z" fill="white"/>
<path d="M167.76 96.7146L173.185 99.9752C173.541 100.167 173.733 100.578 173.623 100.989C173.514 101.318 173.103 101.427 172.746 101.208L167.321 97.9476C166.965 97.7558 166.773 97.3448 166.883 96.9338C167.02 96.605 167.403 96.4954 167.76 96.7146Z" fill="white"/>
<path d="M131.653 74.9775L140.01 79.9917C140.366 80.1835 140.558 80.5945 140.449 81.0055C140.339 81.3343 139.928 81.4439 139.572 81.2247L131.242 76.2105C130.886 76.0187 130.694 75.6077 130.804 75.1967C130.886 74.8679 131.297 74.7583 131.653 74.9775Z" fill="white"/>
<path d="M135.565 104.387L123.838 97.3179C123.482 97.0987 123.071 97.2083 122.961 97.5371C122.852 97.9481 123.044 98.3591 123.4 98.5509L135.127 105.62C135.483 105.839 135.894 105.73 136.004 105.401C136.113 104.99 135.922 104.579 135.565 104.387Z" fill="white"/>
<path d="M168.318 124.08L148.864 112.38C148.508 112.161 148.097 112.27 147.987 112.599C147.878 113.01 148.07 113.421 148.426 113.613L167.88 125.313C168.236 125.532 168.647 125.422 168.757 125.094C168.866 124.683 168.674 124.272 168.318 124.08Z" fill="white"/>
<path d="M145.005 110.056L139.552 106.795C139.196 106.576 138.785 106.685 138.675 107.014C138.593 107.425 138.757 107.836 139.114 108.028L144.566 111.289C144.922 111.508 145.333 111.398 145.443 111.069C145.553 110.686 145.361 110.247 145.005 110.056Z" fill="white"/>
<path d="M123.735 110.77L119.927 108.469C119.57 108.249 119.159 108.359 119.05 108.688C118.94 109.099 119.132 109.51 119.488 109.702L123.297 112.003C123.653 112.222 124.064 112.113 124.174 111.784C124.283 111.4 124.091 110.989 123.735 110.77Z" fill="white"/>
<path d="M140.25 120.736L126.796 112.653C126.44 112.433 126.029 112.543 125.919 112.872C125.81 113.283 126.002 113.694 126.358 113.886L139.811 121.969C140.167 122.188 140.578 122.078 140.688 121.749C140.77 121.338 140.606 120.927 140.25 120.736Z" fill="white"/>
<path d="M147.594 125.122L143.785 122.82C143.429 122.601 143.018 122.711 142.908 123.04C142.799 123.451 142.99 123.862 143.347 124.053L147.155 126.355C147.511 126.574 147.922 126.465 148.032 126.136C148.114 125.725 147.95 125.314 147.594 125.122Z" fill="white"/>
<path d="M164.098 135.068L150.644 126.985C150.288 126.766 149.877 126.875 149.767 127.204C149.685 127.615 149.85 128.026 150.206 128.218L163.659 136.301C164.015 136.52 164.426 136.411 164.536 136.082C164.646 135.698 164.454 135.287 164.098 135.068Z" fill="white"/>
<path d="M138.492 126.411L117.942 114.054C117.586 113.834 117.175 113.944 117.065 114.273C116.955 114.684 117.147 115.095 117.503 115.287L138.053 127.644C138.41 127.863 138.821 127.754 138.93 127.425C139.04 127.041 138.848 126.63 138.492 126.411Z" fill="white"/>
<path d="M172.344 146.771L143.026 129.126C142.67 128.906 142.259 129.016 142.149 129.345C142.039 129.756 142.231 130.167 142.587 130.359L171.933 148.004C172.289 148.223 172.7 148.114 172.81 147.785C172.892 147.401 172.7 146.99 172.344 146.771Z" fill="white"/>
<path d="M127.762 126.718L116.035 119.648C115.678 119.429 115.267 119.539 115.158 119.868C115.048 120.279 115.24 120.69 115.596 120.881L127.323 127.951C127.68 128.17 128.091 128.06 128.2 127.731C128.282 127.32 128.118 126.909 127.762 126.718Z" fill="white"/>
<path d="M137.183 132.386L131.758 129.126C131.402 128.906 130.991 129.016 130.881 129.345C130.772 129.756 130.964 130.167 131.32 130.359L136.772 133.619C137.129 133.838 137.54 133.729 137.649 133.4C137.731 133.016 137.54 132.578 137.183 132.386Z" fill="white"/>
<path d="M178.293 130.061L172.868 126.8C172.512 126.581 172.101 126.691 171.991 127.019C171.909 127.43 172.073 127.841 172.429 128.033L177.882 131.321C178.238 131.54 178.649 131.431 178.759 131.102C178.841 130.691 178.649 130.28 178.293 130.061Z" fill="white"/>
<path d="M179.023 116.954L173.598 113.694C173.242 113.474 172.831 113.584 172.721 113.913C172.612 114.324 172.803 114.735 173.16 114.927L178.585 118.187C178.941 118.406 179.352 118.297 179.462 117.968C179.571 117.584 179.379 117.173 179.023 116.954Z" fill="white"/>
<path d="M190.702 137.536L182.345 132.521C181.989 132.302 181.578 132.412 181.468 132.741C181.386 133.152 181.55 133.563 181.906 133.754L190.263 138.769C190.62 138.988 191.031 138.878 191.14 138.549C191.25 138.138 191.058 137.727 190.702 137.536Z" fill="white"/>
<path d="M177.003 136.053L198.814 149.178C199.17 149.37 199.362 149.781 199.252 150.192C199.142 150.521 198.731 150.63 198.375 150.411L176.565 137.286C176.209 137.095 176.017 136.684 176.126 136.273C176.263 135.944 176.647 135.834 177.003 136.053Z" fill="white"/>
<path d="M133.977 110.191L153.431 121.891C153.787 122.082 153.979 122.493 153.869 122.904C153.76 123.233 153.349 123.343 152.993 123.124L133.539 111.424C133.182 111.232 132.991 110.821 133.1 110.41C133.237 110.081 133.621 109.972 133.977 110.191Z" fill="white"/>
<path d="M167.565 130.388L172.99 133.648C173.347 133.84 173.538 134.251 173.429 134.662C173.319 134.991 172.908 135.1 172.552 134.881L167.127 131.621C166.771 131.429 166.579 131.018 166.688 130.607C166.798 130.251 167.182 130.168 167.565 130.388Z" fill="white"/>
<path d="M158.01 124.63L163.435 127.891C163.792 128.083 163.983 128.494 163.874 128.905C163.764 129.234 163.353 129.343 162.997 129.124L157.572 125.863C157.216 125.672 157.024 125.261 157.133 124.85C157.243 124.521 157.627 124.411 158.01 124.63Z" fill="white"/>
<path d="M121.872 102.903L130.229 107.917C130.586 108.109 130.777 108.52 130.668 108.931C130.558 109.26 130.147 109.369 129.791 109.15L121.434 104.136C121.078 103.944 120.886 103.533 120.996 103.122C121.133 102.793 121.516 102.684 121.872 102.903Z" fill="white"/>
</g>
<path d="M147.307 135.871L77.9305 95.8118C76.8345 95.1816 76.2591 93.6472 76.6701 92.3868L92.3429 41.4776C92.7265 40.2172 93.9321 39.6966 95.0281 40.3268L164.405 80.3582C165.501 80.9884 166.076 82.5228 165.665 83.7832L149.965 134.72C149.582 135.98 148.376 136.501 147.307 135.871Z" fill="#F4F4F4"/>
<path d="M164.4 80.3519L95.0235 40.3205C94.4207 39.9369 93.6535 39.9643 93.0781 40.3753C93.4343 40.3753 93.7631 40.4575 94.0645 40.6219L163.441 80.6807C164.537 81.3109 165.113 82.8453 164.702 84.1057L149.029 135.042C148.919 135.481 148.645 135.837 148.289 136.111C149.029 136.083 149.687 135.59 149.961 134.713L165.633 83.7769C166.044 82.5165 165.469 80.9821 164.4 80.3519Z" fill="#BADE98"/>
<path d="M97.675 201.818C96.7708 201.845 95.894 201.626 95.0994 201.215L67.3158 185.186C66.576 184.748 66.165 184.145 66.165 183.487C66.165 182.693 66.713 181.925 67.6994 181.35L82.0022 173.075C83.7558 172.061 86.304 171.979 87.8384 172.856L115.622 188.912C116.362 189.323 116.773 189.954 116.773 190.611C116.773 191.406 116.225 192.173 115.238 192.748L100.936 200.996C99.9492 201.544 98.8258 201.845 97.675 201.818ZM85.2902 173.048C84.2764 173.048 83.29 173.294 82.4132 173.788L68.1104 182.035C67.398 182.446 66.987 182.967 66.987 183.46C66.987 183.953 67.398 184.282 67.7268 184.474L95.5104 200.503C96.7708 201.242 99.0724 201.133 100.552 200.283L114.855 192.036C115.567 191.625 115.978 191.104 115.978 190.611C115.978 190.118 115.567 189.789 115.238 189.597L87.4548 173.568C86.7972 173.212 86.0574 173.048 85.2902 173.048Z" fill="white"/>
<path d="M111.932 67.0385L107.658 64.5725C107.247 64.2985 107.055 63.8053 107.192 63.3395C107.274 62.9833 107.603 62.7915 107.959 62.8463C108.041 62.8737 108.096 62.9011 108.178 62.9285L112.453 65.3945C112.864 65.6685 113.055 66.1617 112.918 66.6275C112.836 66.9837 112.507 67.1755 112.151 67.1207C112.042 67.0933 111.987 67.0659 111.932 67.0385Z" fill="black"/>
<path d="M122.121 72.935L115.792 69.2908C115.381 69.0168 115.189 68.5236 115.326 68.0578C115.408 67.729 115.737 67.5098 116.066 67.5646C116.148 67.592 116.203 67.6194 116.285 67.6468L122.614 71.291C123.025 71.565 123.217 72.0582 123.08 72.524C122.998 72.8528 122.669 73.072 122.34 73.0172C122.258 73.0172 122.203 72.9898 122.121 72.935Z" fill="black"/>
<path d="M103.272 86.1387L98.9979 83.6727C98.5869 83.3987 98.3951 82.9055 98.5321 82.4397C98.6143 82.0835 98.9431 81.8917 99.2993 81.9465C99.3815 81.9739 99.4363 82.0013 99.5185 82.0287L103.793 84.4947C104.204 84.7687 104.396 85.2619 104.259 85.7277C104.177 86.0839 103.848 86.2757 103.492 86.2209C103.409 86.1935 103.327 86.1661 103.272 86.1387Z" fill="black"/>
<path d="M112.372 91.3735L106.042 87.7293C105.631 87.4553 105.44 86.9621 105.577 86.4963C105.659 86.1675 105.988 85.9483 106.316 86.0031C106.399 86.0305 106.453 86.0579 106.536 86.0853L112.865 89.7295C113.276 90.0035 113.468 90.4967 113.331 90.9625C113.249 91.3187 112.92 91.5379 112.564 91.4557C112.509 91.4557 112.454 91.4283 112.372 91.3735Z" fill="black"/>
<path d="M99.0752 63.6435L96.39 62.1091C95.979 61.8351 95.7872 61.3419 95.9242 60.8761C96.0064 60.5199 96.3352 60.3007 96.6914 60.3829C96.7736 60.4103 96.8284 60.4377 96.9106 60.4651L99.5958 61.9995C100.007 62.2735 100.199 62.7667 100.062 63.2325C99.9794 63.5887 99.6506 63.7805 99.2944 63.7257C99.2122 63.7257 99.13 63.6709 99.0752 63.6435Z" fill="black"/>
<path d="M107.132 72.3008L98.9393 67.588C98.5283 67.314 98.3365 66.8208 98.4735 66.355C98.5557 66.0262 98.8845 65.807 99.2133 65.8618C99.2955 65.8892 99.3503 65.9166 99.4325 65.944L107.625 70.6568C108.036 70.9308 108.228 71.424 108.091 71.8898C108.009 72.246 107.68 72.4652 107.324 72.383C107.269 72.383 107.187 72.3556 107.132 72.3008Z" fill="black"/>
<path d="M99.6006 75.9715L96.9154 74.4371C96.5044 74.1631 96.3126 73.6699 96.4496 73.2041C96.5318 72.8479 96.8606 72.6287 97.2168 72.7109C97.299 72.7383 97.3538 72.7657 97.436 72.7931L100.121 74.3275C100.532 74.6015 100.724 75.0947 100.587 75.5605C100.505 75.9167 100.176 76.1085 99.8198 76.0537C99.7102 76.0537 99.6554 75.9989 99.6006 75.9715Z" fill="black"/>
<path d="M113.35 99.9719L106.198 95.8345C105.787 95.5605 105.595 95.0673 105.732 94.6015C105.815 94.2727 106.143 94.0535 106.472 94.1083C106.554 94.1357 106.609 94.1631 106.691 94.1905L113.843 98.3279C114.254 98.6019 114.446 99.0951 114.309 99.5609C114.226 99.8897 113.898 100.109 113.569 100.054C113.487 100.054 113.432 100.027 113.35 99.9719Z" fill="black"/>
<path d="M96.5791 82.2753L94.8529 81.2889C94.4419 81.0149 94.2501 80.5217 94.3871 80.0559C94.4693 79.6997 94.7981 79.5079 95.1543 79.5627C95.2365 79.5901 95.2913 79.6175 95.3735 79.6449L97.0997 80.6313C97.5107 80.9053 97.7025 81.3985 97.5655 81.8643C97.4833 82.2205 97.1545 82.4397 96.7983 82.3575C96.7161 82.3575 96.6339 82.3301 96.5791 82.2753Z" fill="black"/>
<path d="M94.9467 89.341L92.8095 88.108C92.3985 87.834 92.2067 87.3408 92.3437 86.875C92.4259 86.5188 92.7547 86.2996 93.1109 86.3818C93.1931 86.4092 93.2479 86.4366 93.3301 86.464L95.4673 87.697C95.8783 87.971 96.0701 88.4642 95.9331 88.93C95.8509 89.2862 95.5221 89.5054 95.1659 89.4232C95.0837 89.4232 95.0289 89.3958 94.9467 89.341Z" fill="black"/>
<path d="M103.272 94.1425L97.6552 90.8819C97.2442 90.6079 97.0524 90.1147 97.1894 89.6489C97.2716 89.3201 97.6004 89.1009 97.9292 89.1557C98.0114 89.1831 98.0662 89.2105 98.1484 89.2379L103.765 92.4985C104.176 92.7725 104.368 93.2657 104.231 93.7315C104.149 94.0603 103.82 94.2795 103.491 94.2247C103.409 94.2247 103.327 94.1973 103.272 94.1425Z" fill="black"/>
<path d="M95.8529 93.8911L91.7977 91.5621C91.3867 91.2881 91.1949 90.7949 91.3319 90.3291C91.4141 89.9729 91.7429 89.7537 92.0991 89.8359C92.1813 89.8633 92.2361 89.8907 92.3183 89.9181L96.3736 92.2471C96.7846 92.5211 96.9763 93.0143 96.8393 93.4801C96.7571 93.8363 96.4284 94.0281 96.0722 93.9733C95.99 93.9459 95.9077 93.9185 95.8529 93.8911Z" fill="black"/>
<path d="M119.485 103.539L116.882 102.032C116.471 101.758 116.279 101.265 116.416 100.799C116.498 100.443 116.827 100.223 117.183 100.306C117.265 100.333 117.32 100.36 117.402 100.388L120.005 101.895C120.416 102.169 120.608 102.662 120.471 103.128C120.389 103.484 120.06 103.703 119.704 103.621C119.622 103.621 119.567 103.594 119.485 103.539Z" fill="black"/>
<path d="M109.555 81.7279L102.403 77.5905C101.992 77.3165 101.8 76.8233 101.937 76.3575C102.02 76.0287 102.348 75.8095 102.677 75.8643C102.759 75.8917 102.814 75.9191 102.896 75.9465L110.048 80.0839C110.459 80.3579 110.651 80.8511 110.514 81.3169C110.459 81.6731 110.103 81.8923 109.774 81.8101C109.692 81.8101 109.637 81.7827 109.555 81.7279Z" fill="black"/>
<path d="M110.395 78.1892L97.9276 70.983C97.5166 70.709 97.3248 70.2158 97.4618 69.75C97.544 69.3938 97.8728 69.1746 98.229 69.2568C98.3112 69.2842 98.366 69.3116 98.4482 69.339L110.915 76.5452C111.326 76.8192 111.518 77.3124 111.381 77.7782C111.299 78.1344 110.97 78.3536 110.614 78.2714C110.532 78.2714 110.449 78.244 110.395 78.1892Z" fill="url(#paint5_linear_647_42866)"/>
<path d="M103.055 81.9721L95.9037 77.8347C95.4927 77.5607 95.3009 77.0675 95.4379 76.6017C95.5201 76.2455 95.8489 76.0537 96.2051 76.1085C96.2873 76.1359 96.3421 76.1633 96.4243 76.1907L103.576 80.3281C103.987 80.6021 104.179 81.0953 104.042 81.5611C103.959 81.8899 103.631 82.1091 103.274 82.0269C103.165 82.0543 103.11 82.0269 103.055 81.9721Z" fill="url(#paint6_linear_647_42866)"/>
<path d="M114.971 84.8493L112.368 83.3697C111.957 83.0957 111.765 82.6025 111.902 82.1367C111.984 81.7805 112.313 81.5613 112.669 81.6435C112.751 81.6709 112.806 81.6983 112.888 81.7257L115.491 83.2327C115.902 83.5067 116.094 83.9999 115.957 84.4657C115.875 84.7945 115.546 85.0137 115.19 84.9315C115.108 84.9315 115.025 84.9041 114.971 84.8493Z" fill="url(#paint7_linear_647_42866)"/>
<path d="M141.419 84.056L126.048 75.1784C125.637 74.9044 125.445 74.4112 125.582 73.9454C125.664 73.5892 125.993 73.3974 126.349 73.4522C126.431 73.4796 126.486 73.507 126.568 73.5344L141.967 82.412C142.378 82.686 142.57 83.1792 142.433 83.645C142.378 84.0012 142.022 84.2203 141.693 84.1381C141.584 84.1381 141.501 84.1108 141.419 84.056Z" fill="url(#paint8_linear_647_42866)"/>
<path d="M102.444 89.6724L93.8407 84.713C93.4297 84.439 93.2379 83.9458 93.3749 83.48C93.4571 83.1512 93.7859 82.932 94.1147 82.9868C94.1969 83.0142 94.2517 83.0416 94.3339 83.069L102.938 88.0284C103.349 88.3024 103.54 88.7956 103.403 89.2614C103.349 89.6176 102.992 89.8368 102.664 89.7546C102.581 89.7546 102.499 89.7272 102.444 89.6724Z" fill="url(#paint9_linear_647_42866)"/>
<path d="M103.732 62.2991L97.4022 58.6549C96.9912 58.3809 96.7994 57.8877 96.9364 57.4219C97.0186 57.0657 97.3474 56.8465 97.7036 56.9287C97.7858 56.9561 97.8406 56.9835 97.9228 57.0109L104.252 60.6551C104.663 60.9291 104.855 61.4223 104.718 61.8881C104.636 62.2169 104.307 62.4361 103.978 62.3813C103.869 62.3813 103.786 62.3539 103.732 62.2991Z" fill="url(#paint10_linear_647_42866)"/>
<path d="M94.5286 97.1245L87.1854 92.9049C86.7744 92.6309 86.5826 92.1377 86.7196 91.6719C86.8018 91.3157 87.1306 91.0965 87.4868 91.1787C87.569 91.2061 87.6238 91.2335 87.706 91.2609L95.0218 95.4805C95.4328 95.7545 95.6246 96.2477 95.4876 96.7135C95.4054 97.0423 95.0766 97.2615 94.7478 97.2067C94.6656 97.2067 94.5834 97.1793 94.5286 97.1245Z" fill="url(#paint11_linear_647_42866)"/>
<path d="M143.13 76.1331L140.007 74.3247C139.705 74.1329 139.568 73.7767 139.65 73.4205C139.705 73.1739 139.952 73.0095 140.198 73.0643C140.253 73.0643 140.308 73.0917 140.335 73.1191L143.459 74.9275C143.76 75.1193 143.897 75.4755 143.815 75.8317C143.76 76.0783 143.514 76.2427 143.267 76.1879C143.24 76.1879 143.185 76.1879 143.13 76.1331Z" fill="black"/>
<path d="M149.143 79.5872L146.02 77.7788C145.718 77.587 145.581 77.2308 145.664 76.8746C145.718 76.628 145.965 76.4636 146.212 76.5184C146.266 76.5184 146.321 76.5458 146.349 76.5732L149.472 78.3816C149.774 78.5734 149.911 78.9296 149.828 79.2858C149.774 79.5324 149.527 79.6968 149.28 79.642C149.226 79.642 149.171 79.642 149.143 79.5872Z" fill="black"/>
<path d="M155.118 83.0414L151.994 81.233C151.693 81.0412 151.556 80.685 151.638 80.3288C151.693 80.0822 151.94 79.9178 152.186 79.9726C152.241 79.9726 152.296 80 152.323 80.0274L155.447 81.8358C155.748 82.0276 155.885 82.3838 155.803 82.74C155.748 82.9866 155.502 83.151 155.255 83.0962C155.228 83.0962 155.173 83.0962 155.118 83.0414Z" fill="black"/>
<path d="M158.051 84.742L157.969 84.6872C157.667 84.4954 157.53 84.1392 157.612 83.783C157.667 83.5364 157.914 83.372 158.16 83.4268C158.215 83.4268 158.27 83.4542 158.325 83.4816L158.407 83.5364C158.708 83.7282 158.845 84.0844 158.763 84.4406C158.708 84.6872 158.462 84.8516 158.215 84.7968C158.16 84.7968 158.106 84.7694 158.051 84.742Z" fill="url(#paint12_linear_647_42866)"/>
<path d="M239.753 135.015L182.761 102.108C181.829 101.505 181.418 100.354 181.72 99.2854L194.598 57.4456C194.926 56.4044 195.913 55.9934 196.79 56.514L253.782 89.4214C254.713 90.0242 255.124 91.175 254.823 92.2436L241.945 134.056C241.643 135.097 240.657 135.536 239.753 135.015Z" fill="#F4F4F4"/>
<path d="M253.787 89.4255L196.795 56.5181C196.302 56.2167 195.671 56.2167 195.206 56.5729C195.507 56.5729 195.781 56.6277 196.028 56.7921L253.02 89.6721C253.951 90.2749 254.362 91.4257 254.061 92.4943L241.183 134.334C241.073 134.69 240.881 134.992 240.58 135.211C241.238 135.156 241.786 134.69 241.95 134.06L254.828 92.2203C255.129 91.1517 254.718 90.0283 253.787 89.4255Z" fill="#BADE98"/>
<path d="M193.795 85.6445L196.973 87.4529L195.932 90.9327L192.753 89.1243L193.795 85.6445Z" fill="black"/>
<path d="M225.465 103.098C225.109 103.865 224.506 104.468 223.712 104.797C222.369 105.482 220.807 105.317 219.054 104.303C217.574 103.427 216.369 102.139 215.656 100.55C214.862 98.8782 214.807 96.878 215.492 94.5216C216.149 92.3296 217.136 90.9322 218.506 90.3294C219.876 89.7266 221.328 89.8636 222.945 90.7952C223.876 91.3158 224.698 92.0008 225.356 92.8502C226.013 93.727 226.479 94.7408 226.698 95.8094C226.918 96.8232 226.945 97.8918 226.781 98.933C226.616 99.8098 226.397 100.659 226.123 101.509L218.287 97.0698C217.958 98.3576 218.04 99.4536 218.561 100.358C218.889 100.906 219.355 101.372 219.903 101.673C220.506 102.029 221.081 102.111 221.575 101.947C221.876 101.837 222.177 101.646 222.397 101.399L225.465 103.098ZM223.657 97.5356C223.876 96.741 223.821 95.8916 223.52 95.1244C223.246 94.4394 222.753 93.8914 222.123 93.5352C221.438 93.1516 220.835 93.0694 220.287 93.3434C219.739 93.6174 219.328 94.1106 218.972 94.8778L223.657 97.5356Z" fill="black"/>
<path d="M232.454 108.66L231.714 111.154L230.29 110.414C228.865 109.674 227.961 108.852 227.632 107.948C227.413 107.29 227.413 106.55 227.659 105.893L229.988 98.0838L228.399 97.1796L229.111 94.8232L230.701 95.7274L231.742 92.1928L234.701 93.8642L233.66 97.3988L235.523 98.4674L234.811 100.824L232.947 99.7552L230.947 106.468C230.783 106.989 230.755 107.345 230.838 107.537C230.92 107.729 231.276 108.003 231.879 108.359L232.18 108.523L232.454 108.66Z" fill="black"/>
<path d="M211.421 100.302L208.023 98.3017L204.817 82.3823L201.392 94.4109L198.241 92.5477L203.064 75.6419L206.626 77.7243L209.722 93.3423L213.092 81.5329L216.243 83.3961L211.421 100.302Z" fill="black"/>
<defs>
<linearGradient id="paint0_linear_647_42866" x1="95.0923" y1="111.244" x2="233.41" y2="111.244" gradientUnits="userSpaceOnUse">
<stop stop-color="#DA9A0E"/>
<stop offset="0.18" stop-color="#D6910E"/>
<stop offset="0.47" stop-color="#CC7A0D"/>
<stop offset="0.82" stop-color="#BB530C"/>
<stop offset="1" stop-color="#B13E0B"/>
</linearGradient>
<linearGradient id="paint1_linear_647_42866" x1="19.0903" y1="178.224" x2="201.7" y2="178.224" gradientUnits="userSpaceOnUse">
<stop stop-color="#E9A41C"/>
<stop offset="0.21" stop-color="#E4961C"/>
<stop offset="0.61" stop-color="#D9731D"/>
<stop offset="1" stop-color="#CB4A1D"/>
</linearGradient>
<linearGradient id="paint2_linear_647_42866" x1="19.0581" y1="175.078" x2="201.737" y2="175.078" gradientUnits="userSpaceOnUse">
<stop stop-color="#FFB500"/>
<stop offset="0.17" stop-color="#FFAC00"/>
<stop offset="0.45" stop-color="#FF9500"/>
<stop offset="0.79" stop-color="#FF6E00"/>
<stop offset="0.97" stop-color="#FF5700"/>
</linearGradient>
<linearGradient id="paint3_linear_647_42866" x1="93.2691" y1="111.634" x2="229.189" y2="111.634" gradientUnits="userSpaceOnUse">
<stop stop-color="#FFB500"/>
<stop offset="0.19" stop-color="#FFA900"/>
<stop offset="0.52" stop-color="#FF8A00"/>
<stop offset="0.96" stop-color="#FF5800"/>
<stop offset="0.97" stop-color="#FF5700"/>
</linearGradient>
<linearGradient id="paint4_linear_647_42866" x1="95.5283" y1="111.665" x2="226.957" y2="111.665" gradientUnits="userSpaceOnUse">
<stop stop-color="#3919BA"/>
<stop offset="1" stop-color="#6507F9"/>
</linearGradient>
<linearGradient id="paint5_linear_647_42866" x1="97.4126" y1="73.7791" x2="111.4" y2="73.7791" gradientUnits="userSpaceOnUse">
<stop stop-color="#FFB500"/>
<stop offset="0.17" stop-color="#FFAC00"/>
<stop offset="0.45" stop-color="#FF9500"/>
<stop offset="0.79" stop-color="#FF6E00"/>
<stop offset="0.97" stop-color="#FF5700"/>
</linearGradient>
<linearGradient id="paint6_linear_647_42866" x1="95.3718" y1="79.0958" x2="104.046" y2="79.0958" gradientUnits="userSpaceOnUse">
<stop stop-color="#FFB500"/>
<stop offset="0.17" stop-color="#FFAC00"/>
<stop offset="0.45" stop-color="#FF9500"/>
<stop offset="0.79" stop-color="#FF6E00"/>
<stop offset="0.97" stop-color="#FF5700"/>
</linearGradient>
<linearGradient id="paint7_linear_647_42866" x1="111.861" y1="83.2963" x2="115.979" y2="83.2963" gradientUnits="userSpaceOnUse">
<stop stop-color="#FFB500"/>
<stop offset="0.17" stop-color="#FFAC00"/>
<stop offset="0.45" stop-color="#FF9500"/>
<stop offset="0.79" stop-color="#FF6E00"/>
<stop offset="0.97" stop-color="#FF5700"/>
</linearGradient>
<linearGradient id="paint8_linear_647_42866" x1="125.532" y1="78.811" x2="142.444" y2="78.811" gradientUnits="userSpaceOnUse">
<stop stop-color="#FFB500"/>
<stop offset="0.17" stop-color="#FFAC00"/>
<stop offset="0.45" stop-color="#FF9500"/>
<stop offset="0.79" stop-color="#FF6E00"/>
<stop offset="0.97" stop-color="#FF5700"/>
</linearGradient>
<linearGradient id="paint9_linear_647_42866" x1="93.3217" y1="86.3728" x2="103.44" y2="86.3728" gradientUnits="userSpaceOnUse">
<stop stop-color="#FFB500"/>
<stop offset="0.17" stop-color="#FFAC00"/>
<stop offset="0.45" stop-color="#FF9500"/>
<stop offset="0.79" stop-color="#FF6E00"/>
<stop offset="0.97" stop-color="#FF5700"/>
</linearGradient>
<linearGradient id="paint10_linear_647_42866" x1="96.8954" y1="59.6683" x2="104.737" y2="59.6683" gradientUnits="userSpaceOnUse">
<stop stop-color="#FFB500"/>
<stop offset="0.17" stop-color="#FFAC00"/>
<stop offset="0.45" stop-color="#FF9500"/>
<stop offset="0.79" stop-color="#FF6E00"/>
<stop offset="0.97" stop-color="#FF5700"/>
</linearGradient>
<linearGradient id="paint11_linear_647_42866" x1="86.6841" y1="94.1996" x2="95.5249" y2="94.1996" gradientUnits="userSpaceOnUse">
<stop stop-color="#FFB500"/>
<stop offset="0.17" stop-color="#FFAC00"/>
<stop offset="0.45" stop-color="#FF9500"/>
<stop offset="0.79" stop-color="#FF6E00"/>
<stop offset="0.97" stop-color="#FF5700"/>
</linearGradient>
<linearGradient id="paint12_linear_647_42866" x1="157.579" y1="84.1173" x2="158.788" y2="84.1173" gradientUnits="userSpaceOnUse">
<stop stop-color="#FFB500"/>
<stop offset="0.17" stop-color="#FFAC00"/>
<stop offset="0.45" stop-color="#FF9500"/>
<stop offset="0.79" stop-color="#FF6E00"/>
<stop offset="0.97" stop-color="#FF5700"/>
</linearGradient>
</defs>
</svg>
